<?xml version="1.0" encoding="UTF-8"?>
<svg width="112px" height="29px" viewBox="0 0 112 29" version="1.1" xmlns="http://www.w3.org/2000/svg" xmlns:xlink="http://www.w3.org/1999/xlink">
    <!-- Generator: Sketch Beta 56 (81588) - https://sketch.com -->
    <title>Group</title>
    <desc>Created with Sketch Beta.</desc>
    <g id="Page-1" stroke="none" stroke-width="1" fill="none" fill-rule="evenodd">
        <g id="Group" fill-rule="nonzero">
            <path d="M7.128,13.796 C13.392,13.22 15.372,10.304 15.372,8.504 C15.372,6.488 12.852,5.588 9.9,5.588 C8.46,5.588 7.344,5.804 7.344,5.804 C7.2,6.848 7.128,10.16 7.128,13.796 Z M15.516,27.764 C14.292,26.54 10.8,17.972 10.584,17.036 C10.404,17.144 8.244,17.612 7.164,17.792 C7.2,21.788 7.308,25.352 7.524,26.216 C6.912,26.828 4.788,27.08 3.888,27.08 C3.06,27.08 2.592,26.864 2.592,26.864 C2.592,21.572 2.808,6.092 2.808,6.092 C2.124,5.228 1.44,2.924 1.44,2.348 C1.44,2.276 1.44,2.24 1.476,2.204 C1.62,2.024 5.112,1.808 8.496,1.808 C13.104,1.808 20.124,2.672 20.124,8.324 C20.124,11.456 17.82,13.904 14.508,15.524 C14.508,16.028 18.36,24.596 20.376,26.612 C20.376,26.612 20.412,26.648 20.412,26.684 C20.412,26.972 18.324,27.836 16.416,27.836 C16.02,27.836 15.516,27.764 15.516,27.764 Z M36.168,18.608 C36.168,19.7653391 36.0000017,20.8246619 35.664,21.786 C35.3279983,22.7473381 34.8426698,23.5686633 34.208,24.25 C33.5733302,24.9313367 32.8126711,25.4586648 31.926,25.832 C31.0393289,26.2053352 30.0453388,26.392 28.944,26.392 C27.8613279,26.392 26.8766711,26.2053352 25.99,25.832 C25.1033289,25.4586648 24.3426698,24.9313367 23.708,24.25 C23.0733302,23.5686633 22.5786684,22.7473381 22.224,21.786 C21.8693316,20.8246619 21.692,19.7653391 21.692,18.608 C21.692,17.4506609 21.8739982,16.3960048 22.238,15.444 C22.6020018,14.4919952 23.1059968,13.6800034 23.75,13.008 C24.3940032,12.3359966 25.1593289,11.8133352 26.046,11.44 C26.9326711,11.0666648 27.8986614,10.88 28.944,10.88 C30.0080053,10.88 30.9833289,11.0666648 31.87,11.44 C32.7566711,11.8133352 33.5173302,12.3359966 34.152,13.008 C34.7866698,13.6800034 35.2813316,14.4919952 35.636,15.444 C35.9906684,16.3960048 36.168,17.4506609 36.168,18.608 Z M31.912,18.608 C31.912,17.3199936 31.6553359,16.307337 31.142,15.57 C30.6286641,14.832663 29.8960048,14.464 28.944,14.464 C27.9919952,14.464 27.2546693,14.832663 26.732,15.57 C26.2093307,16.307337 25.948,17.3199936 25.948,18.608 C25.948,19.8960064 26.2093307,20.9179962 26.732,21.674 C27.2546693,22.4300038 27.9919952,22.808 28.944,22.808 C29.8960048,22.808 30.6286641,22.4300038 31.142,21.674 C31.6553359,20.9179962 31.912,19.8960064 31.912,18.608 Z M52.464,18.608 C52.464,19.7653391 52.2960017,20.8246619 51.96,21.786 C51.6239983,22.7473381 51.1386698,23.5686633 50.504,24.25 C49.8693302,24.9313367 49.1086711,25.4586648 48.222,25.832 C47.3353289,26.2053352 46.3413388,26.392 45.24,26.392 C44.1573279,26.392 43.1726711,26.2053352 42.286,25.832 C41.3993289,25.4586648 40.6386698,24.9313367 40.004,24.25 C39.3693302,23.5686633 38.8746684,22.7473381 38.52,21.786 C38.1653316,20.8246619 37.988,19.7653391 37.988,18.608 C37.988,17.4506609 38.1699982,16.3960048 38.534,15.444 C38.8980018,14.4919952 39.4019968,13.6800034 40.046,13.008 C40.6900032,12.3359966 41.4553289,11.8133352 42.342,11.44 C43.2286711,11.0666648 44.1946614,10.88 45.24,10.88 C46.3040053,10.88 47.2793289,11.0666648 48.166,11.44 C49.0526711,11.8133352 49.8133302,12.3359966 50.448,13.008 C51.0826698,13.6800034 51.5773316,14.4919952 51.932,15.444 C52.2866684,16.3960048 52.464,17.4506609 52.464,18.608 Z M48.208,18.608 C48.208,17.3199936 47.9513359,16.307337 47.438,15.57 C46.9246641,14.832663 46.1920048,14.464 45.24,14.464 C44.2879952,14.464 43.5506693,14.832663 43.028,15.57 C42.5053307,16.307337 42.244,17.3199936 42.244,18.608 C42.244,19.8960064 42.5053307,20.9179962 43.028,21.674 C43.5506693,22.4300038 44.2879952,22.808 45.24,22.808 C46.1920048,22.808 46.9246641,22.4300038 47.438,21.674 C47.9513359,20.9179962 48.208,19.8960064 48.208,18.608 Z M67.116,16.208 C67.224,17.36 67.224,18.512 67.224,21.536 C67.224,23.912 67.08,24.38 67.08,24.38 C67.08,24.56 65.604,25.1 64.056,25.1 C63.372,25.1 62.904,24.92 62.904,24.92 C63.084,23.3 63.228,21.824 63.228,19.448 C63.228,16.532 63.156,14.876 61.608,14.876 C59.7,14.876 58.8,17.36 58.8,17.792 C58.8,18.008 58.836,20.24 58.836,22.364 C58.836,24.2 58.8,25.928 58.692,26.072 C57.864,26.864 56.208,26.936 54.912,26.936 C54.768,26.936 54.624,26.936 54.624,26.828 C54.804,25.712 54.876,23.732 54.876,21.536 C54.876,18.62 54.768,15.308 54.768,13.076 C54.768,11.672 54.84,10.7 54.948,10.592 C55.452,10.124 56.784,9.512 58.08,9.512 C58.404,9.512 58.836,9.584 58.836,9.656 C58.8,10.052 58.692,12.032 58.692,12.716 C58.692,12.716 58.692,12.896 58.764,12.896 C58.8,12.896 58.836,12.896 58.908,12.824 C58.908,12.824 60.852,10.7 62.796,10.7 C64.596,10.7 65.568,11.456 66.324,12.788 C67.368,11.312 68.844,9.908 70.86,9.908 C75.36,9.908 75.468,16.316 75.468,22.472 C75.468,24.848 75.324,26.684 75.324,26.684 C75.324,26.864 73.776,27.404 72.228,27.404 C71.544,27.404 71.076,27.224 71.076,27.224 C71.256,25.604 71.472,23.264 71.472,20.888 C71.472,17.216 71.328,14.624 69.276,14.624 C67.908,14.624 67.116,16.064 67.116,16.208 Z M83.496,6.92 C83.496,8.216 82.2,9.368 80.904,9.368 C79.572,9.368 78.708,8.504 78.708,6.92 C78.708,5.696 79.968,4.508 81.264,4.508 C82.56,4.508 83.496,5.408 83.496,6.92 Z M82.128,11.42 C82.128,11.42 82.956,11.42 83.136,11.636 C83.136,11.816 83.028,15.992 83.028,19.304 C83.028,20.96 83.064,22.4 83.136,23.012 C83.316,24.524 83.676,25.244 84.108,25.892 C84.108,26.324 81.624,27.836 80.112,27.836 C79.968,27.836 79.248,26.9 79.032,24.668 C78.996,24.2 78.96,23.012 78.96,21.536 C78.96,17.828 79.068,12.356 79.212,12.068 C79.212,12.068 80.04,11.42 82.128,11.42 Z M94.944,14.552 C94.944,13.796 94.368,13.508 93.828,13.508 C91.884,13.508 90.12,15.812 90.12,18.656 C90.12,19.052 90.12,19.16 90.264,19.16 C91.776,19.124 94.944,16.964 94.944,14.552 Z M93.36,26.828 C88.32,26.828 85.908,23.444 85.908,19.232 C85.908,14.552 88.788,10.268 94.62,10.268 C96.312,10.268 99.156,10.988 99.156,14.192 C99.156,17.252 96.456,20.528 91.848,22.112 C91.848,22.328 92.604,23.084 94.476,23.084 C96.024,23.084 97.68,22.796 98.796,22.112 C98.796,22.112 98.832,22.076 98.868,22.076 C98.94,22.076 98.976,22.544 98.976,22.76 C98.976,23.624 98.76,25.136 98.076,26 C98.076,26 96.852,26.828 93.36,26.828 Z M111.972,21.86 C111.972,26.072 105.348,28.196 102.54,28.196 C102.18,28.196 101.136,26.684 101.136,24.992 L101.136,24.74 C105.276,24.74 106.896,22.904 106.896,21.752 C106.896,19.664 101.136,18.548 101.136,15.452 C101.136,12.464 105.636,9.584 109.704,9.584 C110.1,9.584 111.216,11.06 111.252,12.608 C110.712,12.608 106.248,13.364 106.248,15.272 C106.248,17.072 111.864,18.116 111.972,21.86 Z" id="Roomies-Copy-3" fill="#F7E89F"></path>
            <path d="M6.128,12.796 C12.392,12.22 14.372,9.304 14.372,7.504 C14.372,5.488 11.852,4.588 8.9,4.588 C7.46,4.588 6.344,4.804 6.344,4.804 C6.2,5.848 6.128,9.16 6.128,12.796 Z M14.516,26.764 C13.292,25.54 9.8,16.972 9.584,16.036 C9.404,16.144 7.244,16.612 6.164,16.792 C6.2,20.788 6.308,24.352 6.524,25.216 C5.912,25.828 3.788,26.08 2.888,26.08 C2.06,26.08 1.592,25.864 1.592,25.864 C1.592,20.572 1.808,5.092 1.808,5.092 C1.124,4.228 0.44,1.924 0.44,1.348 C0.44,1.276 0.44,1.24 0.476,1.204 C0.62,1.024 4.112,0.808 7.496,0.808 C12.104,0.808 19.124,1.672 19.124,7.324 C19.124,10.456 16.82,12.904 13.508,14.524 C13.508,15.028 17.36,23.596 19.376,25.612 C19.376,25.612 19.412,25.648 19.412,25.684 C19.412,25.972 17.324,26.836 15.416,26.836 C15.02,26.836 14.516,26.764 14.516,26.764 Z M35.168,17.608 C35.168,18.7653391 35.0000017,19.8246619 34.664,20.786 C34.3279983,21.7473381 33.8426698,22.5686633 33.208,23.25 C32.5733302,23.9313367 31.8126711,24.4586648 30.926,24.832 C30.0393289,25.2053352 29.0453388,25.392 27.944,25.392 C26.8613279,25.392 25.8766711,25.2053352 24.99,24.832 C24.1033289,24.4586648 23.3426698,23.9313367 22.708,23.25 C22.0733302,22.5686633 21.5786684,21.7473381 21.224,20.786 C20.8693316,19.8246619 20.692,18.7653391 20.692,17.608 C20.692,16.4506609 20.8739982,15.3960048 21.238,14.444 C21.6020018,13.4919952 22.1059968,12.6800034 22.75,12.008 C23.3940032,11.3359966 24.1593289,10.8133352 25.046,10.44 C25.9326711,10.0666648 26.8986614,9.88 27.944,9.88 C29.0080053,9.88 29.9833289,10.0666648 30.87,10.44 C31.7566711,10.8133352 32.5173302,11.3359966 33.152,12.008 C33.7866698,12.6800034 34.2813316,13.4919952 34.636,14.444 C34.9906684,15.3960048 35.168,16.4506609 35.168,17.608 Z M30.912,17.608 C30.912,16.3199936 30.6553359,15.307337 30.142,14.57 C29.6286641,13.832663 28.8960048,13.464 27.944,13.464 C26.9919952,13.464 26.2546693,13.832663 25.732,14.57 C25.2093307,15.307337 24.948,16.3199936 24.948,17.608 C24.948,18.8960064 25.2093307,19.9179962 25.732,20.674 C26.2546693,21.4300038 26.9919952,21.808 27.944,21.808 C28.8960048,21.808 29.6286641,21.4300038 30.142,20.674 C30.6553359,19.9179962 30.912,18.8960064 30.912,17.608 Z M51.464,17.608 C51.464,18.7653391 51.2960017,19.8246619 50.96,20.786 C50.6239983,21.7473381 50.1386698,22.5686633 49.504,23.25 C48.8693302,23.9313367 48.1086711,24.4586648 47.222,24.832 C46.3353289,25.2053352 45.3413388,25.392 44.24,25.392 C43.1573279,25.392 42.1726711,25.2053352 41.286,24.832 C40.3993289,24.4586648 39.6386698,23.9313367 39.004,23.25 C38.3693302,22.5686633 37.8746684,21.7473381 37.52,20.786 C37.1653316,19.8246619 36.988,18.7653391 36.988,17.608 C36.988,16.4506609 37.1699982,15.3960048 37.534,14.444 C37.8980018,13.4919952 38.4019968,12.6800034 39.046,12.008 C39.6900032,11.3359966 40.4553289,10.8133352 41.342,10.44 C42.2286711,10.0666648 43.1946614,9.88 44.24,9.88 C45.3040053,9.88 46.2793289,10.0666648 47.166,10.44 C48.0526711,10.8133352 48.8133302,11.3359966 49.448,12.008 C50.0826698,12.6800034 50.5773316,13.4919952 50.932,14.444 C51.2866684,15.3960048 51.464,16.4506609 51.464,17.608 Z M47.208,17.608 C47.208,16.3199936 46.9513359,15.307337 46.438,14.57 C45.9246641,13.832663 45.1920048,13.464 44.24,13.464 C43.2879952,13.464 42.5506693,13.832663 42.028,14.57 C41.5053307,15.307337 41.244,16.3199936 41.244,17.608 C41.244,18.8960064 41.5053307,19.9179962 42.028,20.674 C42.5506693,21.4300038 43.2879952,21.808 44.24,21.808 C45.1920048,21.808 45.9246641,21.4300038 46.438,20.674 C46.9513359,19.9179962 47.208,18.8960064 47.208,17.608 Z M66.116,15.208 C66.224,16.36 66.224,17.512 66.224,20.536 C66.224,22.912 66.08,23.38 66.08,23.38 C66.08,23.56 64.604,24.1 63.056,24.1 C62.372,24.1 61.904,23.92 61.904,23.92 C62.084,22.3 62.228,20.824 62.228,18.448 C62.228,15.532 62.156,13.876 60.608,13.876 C58.7,13.876 57.8,16.36 57.8,16.792 C57.8,17.008 57.836,19.24 57.836,21.364 C57.836,23.2 57.8,24.928 57.692,25.072 C56.864,25.864 55.208,25.936 53.912,25.936 C53.768,25.936 53.624,25.936 53.624,25.828 C53.804,24.712 53.876,22.732 53.876,20.536 C53.876,17.62 53.768,14.308 53.768,12.076 C53.768,10.672 53.84,9.7 53.948,9.592 C54.452,9.124 55.784,8.512 57.08,8.512 C57.404,8.512 57.836,8.584 57.836,8.656 C57.8,9.052 57.692,11.032 57.692,11.716 C57.692,11.716 57.692,11.896 57.764,11.896 C57.8,11.896 57.836,11.896 57.908,11.824 C57.908,11.824 59.852,9.7 61.796,9.7 C63.596,9.7 64.568,10.456 65.324,11.788 C66.368,10.312 67.844,8.908 69.86,8.908 C74.36,8.908 74.468,15.316 74.468,21.472 C74.468,23.848 74.324,25.684 74.324,25.684 C74.324,25.864 72.776,26.404 71.228,26.404 C70.544,26.404 70.076,26.224 70.076,26.224 C70.256,24.604 70.472,22.264 70.472,19.888 C70.472,16.216 70.328,13.624 68.276,13.624 C66.908,13.624 66.116,15.064 66.116,15.208 Z M82.496,5.92 C82.496,7.216 81.2,8.368 79.904,8.368 C78.572,8.368 77.708,7.504 77.708,5.92 C77.708,4.696 78.968,3.508 80.264,3.508 C81.56,3.508 82.496,4.408 82.496,5.92 Z M81.128,10.42 C81.128,10.42 81.956,10.42 82.136,10.636 C82.136,10.816 82.028,14.992 82.028,18.304 C82.028,19.96 82.064,21.4 82.136,22.012 C82.316,23.524 82.676,24.244 83.108,24.892 C83.108,25.324 80.624,26.836 79.112,26.836 C78.968,26.836 78.248,25.9 78.032,23.668 C77.996,23.2 77.96,22.012 77.96,20.536 C77.96,16.828 78.068,11.356 78.212,11.068 C78.212,11.068 79.04,10.42 81.128,10.42 Z M93.944,13.552 C93.944,12.796 93.368,12.508 92.828,12.508 C90.884,12.508 89.12,14.812 89.12,17.656 C89.12,18.052 89.12,18.16 89.264,18.16 C90.776,18.124 93.944,15.964 93.944,13.552 Z M92.36,25.828 C87.32,25.828 84.908,22.444 84.908,18.232 C84.908,13.552 87.788,9.268 93.62,9.268 C95.312,9.268 98.156,9.988 98.156,13.192 C98.156,16.252 95.456,19.528 90.848,21.112 C90.848,21.328 91.604,22.084 93.476,22.084 C95.024,22.084 96.68,21.796 97.796,21.112 C97.796,21.112 97.832,21.076 97.868,21.076 C97.94,21.076 97.976,21.544 97.976,21.76 C97.976,22.624 97.76,24.136 97.076,25 C97.076,25 95.852,25.828 92.36,25.828 Z M110.972,20.86 C110.972,25.072 104.348,27.196 101.54,27.196 C101.18,27.196 100.136,25.684 100.136,23.992 L100.136,23.74 C104.276,23.74 105.896,21.904 105.896,20.752 C105.896,18.664 100.136,17.548 100.136,14.452 C100.136,11.464 104.636,8.584 108.704,8.584 C109.1,8.584 110.216,10.06 110.252,11.608 C109.712,11.608 105.248,12.364 105.248,14.272 C105.248,16.072 110.864,17.116 110.972,20.86 Z" id="Roomies-Copy-4" fill="#31104C"></path>
        </g>
    </g>
</svg>